<?xml version="1.0" encoding="iso-8859-1"?>
<!-- Generator: Adobe Illustrator 19.0.0, SVG Export Plug-In . SVG Version: 6.00 Build 0)  -->
<svg version="1.1" id="Layer_1" xmlns="http://www.w3.org/2000/svg" xmlns:xlink="http://www.w3.org/1999/xlink" x="0px" y="0px"
	 viewBox="0 0 512 512" style="enable-background:new 0 0 512 512;" xml:space="preserve">
<g>
	<g>
		<path d="M497,0H286c-8.291,0-15,6.709-15,15v211c0,8.291,6.709,15,15,15h211c8.291,0,15-6.709,15-15V15C512,6.709,505.291,0,497,0
			z M451,166c0,8.291-6.709,15-15,15h-90c-8.291,0-15-6.709-15-15V76c0-8.291,6.709-15,15-15h90c8.291,0,15,6.709,15,15V166z"/>
	</g>
</g>
<g>
	<g>
		<rect x="361" y="91" width="60" height="60"/>
	</g>
</g>
<g>
	<g>
		<rect x="91" y="91" width="60" height="60"/>
	</g>
</g>
<g>
	<g>
		<path d="M226,0H15C6.709,0,0,6.709,0,15v211c0,8.291,6.709,15,15,15h211c8.291,0,15-6.709,15-15V15C241,6.709,234.291,0,226,0z
			 M181,166c0,8.291-6.709,15-15,15H76c-8.291,0-15-6.709-15-15V76c0-8.291,6.709-15,15-15h90c8.291,0,15,6.709,15,15V166z"/>
	</g>
</g>
<g>
	<g>
		<rect x="91" y="361" width="60" height="60"/>
	</g>
</g>
<g>
	<g>
		<path d="M226,271H15c-8.291,0-15,6.709-15,15v211c0,8.291,6.709,15,15,15h211c8.291,0,15-6.709,15-15V286
			C241,277.709,234.291,271,226,271z M181,436c0,8.291-6.709,15-15,15H76c-8.291,0-15-6.709-15-15v-90c0-8.291,6.709-15,15-15h90
			c8.291,0,15,6.709,15,15V436z"/>
	</g>
</g>
<g>
	<g>
		<path d="M437.831,271H406c-8.291,0-15,6.709-15,15v75h-90v-60h30v15c0,8.291,6.709,15,15,15c8.291,0,15-6.709,15-15v-30
			c0-8.291-6.709-15-15-15h-60c-8.291,0-15,6.709-15,15c0,117.316,0,92.875,0,211c0,8.291,6.709,15,15,15c8.291,0,15-6.709,15-15
			V391h105c8.291,0,15-6.709,15-15v-75h16.831c8.291,0,15-6.709,15-15C452.831,277.709,446.122,271,437.831,271z"/>
	</g>
</g>
<g>
	<g>
		<path d="M497,391h-61c-8.291,0-15,6.709-15,15v15h-75c-8.291,0-15,6.709-15,15v61c0,8.291,6.709,15,15,15h30
			c8.291,0,15-6.709,15-15c0-8.291-6.709-15-15-15h-15v-31h75c8.291,0,15-6.709,15-15v-15h46c8.291,0,15-6.709,15-15
			C512,397.709,505.291,391,497,391z"/>
	</g>
</g>
<g>
	<g>
		<path d="M497,451c-8.291,0-16,6.709-16,15v16h-45c-8.291,0-15,6.709-15,15c0,8.291,6.709,15,15,15h61c8.291,0,15-6.709,15-15v-31
			C512,457.709,505.291,451,497,451z"/>
	</g>
</g>
<g>
	<g>
		<path d="M497,271c-8.291,0-16,6.709-16,15v45h-15c-8.291,0-15,6.709-15,15c0,8.291,6.709,15,15,15h31c8.291,0,15-6.709,15-15v-60
			C512,277.709,505.291,271,497,271z"/>
	</g>
</g>
<g>
</g>
<g>
</g>
<g>
</g>
<g>
</g>
<g>
</g>
<g>
</g>
<g>
</g>
<g>
</g>
<g>
</g>
<g>
</g>
<g>
</g>
<g>
</g>
<g>
</g>
<g>
</g>
<g>
</g>
</svg>
