<?xml version="1.0" encoding="iso-8859-1"?>
<!-- Generator: Adobe Illustrator 19.0.0, SVG Export Plug-In . SVG Version: 6.00 Build 0)  -->
<svg version="1.1" id="Capa_1" xmlns="http://www.w3.org/2000/svg" xmlns:xlink="http://www.w3.org/1999/xlink" x="0px" y="0px"
	 viewBox="0 0 512 512" style="enable-background:new 0 0 512 512;" xml:space="preserve">
<g>
	<g>
		<path d="M467,71H45C20.187,71,0,91.187,0,116v280c0,24.813,20.187,45,45,45h422c24.813,0,45-20.187,45-45V116
			C512,91.187,491.813,71,467,71z M90,366c0,8.284-6.716,15-15,15s-15-6.716-15-15V146c0-8.284,6.716-15,15-15s15,6.716,15,15V366z
			 M162.4,278c0,8.284-6.716,15-15,15s-15-6.716-15-15V146c0-8.284,6.716-15,15-15s15,6.716,15,15V278z M234.8,316.096
			c0,8.284-6.716,15-15,15s-15-6.716-15-15V146c0-8.284,6.716-15,15-15s15,6.716,15,15V316.096z M307.2,278c0,8.284-6.716,15-15,15
			s-15-6.716-15-15V146c0-8.284,6.716-15,15-15s15,6.716,15,15V278z M379.6,316.096c0,8.284-6.716,15-15,15s-15-6.716-15-15V146
			c0-8.284,6.716-15,15-15s15,6.716,15,15V316.096z M452,366c0,8.284-6.716,15-15,15s-15-6.716-15-15V146c0-8.284,6.716-15,15-15
			s15,6.716,15,15V366z"/>
	</g>
</g>
<g>
</g>
<g>
</g>
<g>
</g>
<g>
</g>
<g>
</g>
<g>
</g>
<g>
</g>
<g>
</g>
<g>
</g>
<g>
</g>
<g>
</g>
<g>
</g>
<g>
</g>
<g>
</g>
<g>
</g>
</svg>
