<svg id="_x31__x2C_5" enable-background="new 0 0 24 24" height="512" viewBox="0 0 24 24" width="512" xmlns="http://www.w3.org/2000/svg"><path d="m17.25 23h-14.5c-1.517 0-2.75-1.233-2.75-2.75v-8.5c0-1.517 1.233-2.75 2.75-2.75h14.5c1.517 0 2.75 1.233 2.75 2.75v8.5c0 1.517-1.233 2.75-2.75 2.75zm-14.5-12.5c-.689 0-1.25.561-1.25 1.25v8.5c0 .689.561 1.25 1.25 1.25h14.5c.689 0 1.25-.561 1.25-1.25v-8.5c0-.689-.561-1.25-1.25-1.25z"/><path d="m6.25 17h-1.5c-.965 0-1.75-.785-1.75-1.75v-1.5c0-.965.785-1.75 1.75-1.75h1.5c.965 0 1.75.785 1.75 1.75v1.5c0 .965-.785 1.75-1.75 1.75zm-1.5-3.5c-.138 0-.25.112-.25.25v1.5c0 .138.112.25.25.25h1.5c.138 0 .25-.112.25-.25v-1.5c0-.138-.112-.25-.25-.25z"/><path d="m16.25 20h-12.5c-.414 0-.75-.336-.75-.75s.336-.75.75-.75h12.5c.414 0 .75.336.75.75s-.336.75-.75.75z"/><path d="m22.75 6.5h-17.5c-.414 0-.75-.336-.75-.75s.336-.75.75-.75h17.5c.414 0 .75.336.75.75s-.336.75-.75.75z"/><path d="m22.25 14.72c-.261 0-.515-.137-.653-.38-.205-.36-.078-.818.282-1.022.388-.22.62-.62.62-1.068v-8.5c0-.689-.561-1.25-1.25-1.25h-14.499c-.689 0-1.25.561-1.25 1.25v3c0 .414-.336.75-.75.75s-.75-.336-.75-.75v-3c0-1.517 1.233-2.75 2.75-2.75h14.5c1.517 0 2.75 1.233 2.75 2.75v8.5c0 .981-.529 1.89-1.38 2.373-.117.066-.244.097-.37.097z"/></svg>