<svg height="512" viewBox="0 0 24 24" width="512" xmlns="http://www.w3.org/2000/svg"><g id="Layer_62" data-name="Layer 62"><path d="m3 6h11a2 2 0 0 0 2 2h2a2 2 0 0 0 2-2h1a1 1 0 0 0 0-2h-1a2 2 0 0 0 -2-2h-2a2 2 0 0 0 -2 2h-11a1 1 0 0 0 0 2zm13-2h2v1 1h-2zm5 7h-9a2 2 0 0 0 -2-2h-2a2 2 0 0 0 -2 2h-3a1 1 0 0 0 0 2h3a2 2 0 0 0 2 2h2a2 2 0 0 0 2-2h9a1 1 0 0 0 0-2zm-13 2v-2h2v1 1zm13 5h-3a2 2 0 0 0 -2-2h-2a2 2 0 0 0 -2 2h-9a1 1 0 0 0 0 2h9a2 2 0 0 0 2 2h2a2 2 0 0 0 2-2h3a1 1 0 0 0 0-2zm-7 2v-2h2v1 1z"/></g></svg>