<?xml version="1.0" encoding="iso-8859-1"?>
<!-- Generator: Adobe Illustrator 19.0.0, SVG Export Plug-In . SVG Version: 6.00 Build 0)  -->
<svg version="1.1" id="Capa_1" xmlns="http://www.w3.org/2000/svg" xmlns:xlink="http://www.w3.org/1999/xlink" x="0px" y="0px"
	 viewBox="0 0 511.2 511.2" style="enable-background:new 0 0 511.2 511.2;" xml:space="preserve">
<g>
	<g>
		<path d="M0,255.232c0,64.832,24.416,123.936,64.288,169.088l91.008-91.008C138.432,311.616,128,284.736,128,255.2
			c0-65.088,49.024-118.4,112-126.368V0.032C106.304,8.352,0,119.456,0,255.232z"/>
	</g>
</g>
<g>
	<g>
		<path d="M271.968,0v128.8c57.696,7.328,103.104,52.736,110.4,110.4h128.8C503.168,110.816,400.352,8,271.968,0z"/>
	</g>
</g>
<g>
	<g>
		<path d="M382.4,271.2c-8,62.976-61.28,112-126.4,112c-29.504,0-56.384-10.464-78.08-27.296l-91.008,91.008
			C132.064,486.784,191.168,511.2,256,511.2c135.744,0,246.848-106.304,255.2-240H382.4z"/>
	</g>
</g>
<g>
</g>
<g>
</g>
<g>
</g>
<g>
</g>
<g>
</g>
<g>
</g>
<g>
</g>
<g>
</g>
<g>
</g>
<g>
</g>
<g>
</g>
<g>
</g>
<g>
</g>
<g>
</g>
<g>
</g>
</svg>
