<svg height="512pt" viewBox="0 -149 512 512" width="512pt" xmlns="http://www.w3.org/2000/svg"><path d="m256 170.449219c-35.285156 0-64-28.714844-64-64 0-35.285157 28.714844-64 64-64s64 28.714843 64 64c0 35.285156-28.714844 64-64 64zm0-96c-17.644531 0-32 14.355469-32 32s14.355469 32 32 32 32-14.355469 32-32-14.355469-32-32-32zm0 0"/><path d="m384 213.117188c-11.753906 0-21.332031-9.578126-21.332031-21.335938v-170.664062c0-15.808594 18.238281-26.710938 32.894531-18.050782.640625.386719 1.257812.8125 1.835938 1.28125l106.664062 85.332032c5.613281 5.503906 7.9375 11.007812 7.9375 16.769531s-2.324219 11.265625-6.550781 15.53125l-108.03125 86.570312c-.574219.46875-1.214844.894531-1.832031 1.28125-3.757813 2.21875-7.554688 3.285157-11.585938 3.285157zm10.667969-170.007813v126.65625l79.210937-63.378906zm0 0"/><path d="m128 213.117188c-4.03125 0-7.828125-1.066407-11.5625-3.285157-.640625-.386719-1.257812-.8125-1.835938-1.28125l-106.664062-85.332031c-5.613281-5.503906-7.9375-11.007812-7.9375-16.769531s2.324219-11.265625 6.550781-15.53125l108.03125-86.570313c.574219-.46875 1.214844-.894531 1.832031-1.28125 14.65625-8.679687 32.917969 2.242188 32.917969 18.050782v170.664062c0 11.757812-9.578125 21.335938-21.332031 21.335938zm-89.878906-106.605469 79.210937 63.277343v-126.65625zm0 0"/></svg>