<svg clip-rule="evenodd" fill-rule="evenodd" height="512" stroke-linejoin="round" stroke-miterlimit="2" viewBox="0 0 32 32" width="512" xmlns="http://www.w3.org/2000/svg" xmlns:serif="http://www.serif.com/"><g transform="translate(-172 -81.667)"><path d="m175 106.667c-.105-.001-.209-.017-.309-.049-.096-.031-.187-.077-.27-.136-.262-.186-.421-.494-.421-.815 0-.723 0-1.446 0-2.169 0-1.075.231-2.146.68-3.124.109-.237.23-.468.362-.692.081-.136.159-.276.271-.389.095-.095.209-.17.333-.22.104-.042.215-.066.327-.072.333-.016.664.141.858.413.057.079.102.165.134.256.039.114.058.234.056.354-.003.131-.032.261-.085.381-.041.09-.097.171-.148.255-.058.095-.112.192-.164.291-.171.327-.309.671-.411 1.026-.105.364-.171.739-.198 1.116-.01.135-.015.27-.015.405v1.169h11v-1.169c0-3.036-2.462-5.498-5.498-5.498h-.006c-2.758-.002-4.996-2.242-4.996-5 0-2.76 2.24-5 5-5s5 2.24 5 5c0 1.498-.66 2.843-1.705 3.76 1.343.657 2.46 1.705 3.205 2.994.745-1.289 1.862-2.337 3.205-2.994-1.045-.917-1.705-2.262-1.705-3.76 0-2.76 2.24-5 5-5s5 2.24 5 5c0 1.498-.66 2.843-1.705 3.76 2.49 1.219 4.205 3.778 4.205 6.738v2.169c0 .552-.448 1-1 1zm19.502-8.667h-.004c-3.036 0-5.498 2.462-5.498 5.498v1.169h11v-1.169c0-3.036-2.462-5.498-5.498-5.498zm-13.002-8c1.656 0 3 1.344 3 3s-1.344 3-3 3-3-1.344-3-3 1.344-3 3-3zm13 0c1.656 0 3 1.344 3 3s-1.344 3-3 3-3-1.344-3-3 1.344-3 3-3z"/></g></svg>