<svg id="Capa_1" enable-background="new 0 0 512 512" height="512" viewBox="0 0 512 512" width="512" xmlns="http://www.w3.org/2000/svg"><g><path d="m497 301h-168.531c-37.86-37.063-81.565-28.912-88.469-30v-18.846c20.406-14.211 34.594-34.789 41.033-57.522 19.496-4.933 33.967-22.625 33.967-43.632 0-19.555-12.541-36.228-30-42.42v-3.58c0-57.897-47.103-105-105-105s-105 47.103-105 105v3.58c-17.459 6.192-30 22.865-30 42.42 0 21.001 14.461 38.688 33.948 43.627 6.742 23.995 21.707 44.047 41.052 57.575v18.798h-15c-57.897 0-105 47.103-105 105v121c0 8.284 6.716 15 15 15s15-6.716 15-15v-121c0-41.355 33.645-75 75-75h16.899c6.677 25.849 30.195 45 58.101 45s51.424-19.151 58.101-45c12.64.473 23.316-1.565 39.321 3.458-3.312 2.751-5.423 6.9-5.423 11.542v181c0 8.284 6.716 15 15 15h210c8.284 0 15-6.716 15-15v-181c.001-8.284-6.715-15-14.999-15zm-317-271c33.239 0 61.48 21.742 71.291 51.745-45.692-8.015-102.473 28.906-146.291 26.42v-3.165c0-41.355 33.645-75 75-75zm-89.481 135.988c-8.279.381-15.519-6.412-15.519-14.988 0-7.779 5.953-14.191 13.543-14.926 58.6 13.379 129.666-39.404 166.457-21.859v6.785c0 8.284 6.716 15 15 15 8.271 0 15 6.729 15 15 0 8.596-7.262 15.368-15.519 14.988-7.593-.379-14.273 5.006-15.526 12.511-6.048 36.216-37.15 62.501-73.955 62.501-37.664 0-68.13-27.499-73.953-62.493-1.251-7.508-7.943-12.892-15.528-12.519zm89.481 150.012c-16.542 0-30-13.458-30-30v-19.329c19.241 5.703 40.076 5.865 60-.075v19.404c0 16.542-13.458 30-30 30zm197 15h30v30h-30zm105 151h-180v-151h45v45c0 8.284 6.716 15 15 15h60c8.284 0 15-6.716 15-15v-45h45z"/><path d="m75 391c-8.284 0-15 6.716-15 15v91c0 8.284 6.716 15 15 15s15-6.716 15-15v-91c0-8.284-6.716-15-15-15z"/><path d="m225 391h-90c-8.284 0-15 6.716-15 15s6.716 15 15 15h90c8.284 0 15-6.716 15-15s-6.716-15-15-15z"/><path d="m225 451h-90c-8.284 0-15 6.716-15 15s6.716 15 15 15h90c8.284 0 15-6.716 15-15s-6.716-15-15-15z"/></g></svg>